#N canvas 46 83 1317 660 10;
#X obj 707 222 r done;
#X obj 336 455 print team;
#X obj 246 251 list trim;
#X obj 230 358 pack s s f f f f f s;
#X obj 230 455 list split 1;
#X obj 230 421 list split 7;
#X obj 670 368 common/sonification;
#X obj 33 598 import purest_json zexy list-abs;
#X msg 57 430 \; pd dsp 1;
#X obj 394 78 print status;
#X obj 246 330 makefilename %s.wav;
#X obj 246 91 symbol;
#X obj 87 27 bng 15 250 50 0 empty empty empty 17 7 0 10 -262144 -1
-1;
#X obj 87 56 t b b;
#X obj 87 210 t b b;
#X obj 663 497 s data;
#X obj 285 54 purest_json/rest;
#X obj 246 221 purest_json/json-decode;
#X obj 229 393 fifop;
#X obj 246 306 l2s;
#X obj 454 304 l2s;
#X msg 285 24 GET http://ix.residuum.org/pd/premierleague.php;
#X obj 246 278 route filename pos gf ga gd pts team;
#X obj 125 353 print;
#X obj 483 214 s max_points;
#X obj 246 141 list trim;
#X obj 246 119 purest_json/json-decode;
#X obj 246 165 route teams maxpts;
#X connect 0 0 18 0;
#X connect 2 0 22 0;
#X connect 3 0 18 0;
#X connect 4 1 15 0;
#X connect 5 0 4 0;
#X connect 5 1 1 0;
#X connect 10 0 3 1;
#X connect 11 0 26 0;
#X connect 12 0 13 0;
#X connect 13 0 14 0;
#X connect 13 1 11 0;
#X connect 14 0 18 0;
#X connect 14 1 8 0;
#X connect 16 0 11 1;
#X connect 16 1 9 0;
#X connect 17 0 2 0;
#X connect 17 1 3 0;
#X connect 18 0 5 0;
#X connect 18 0 23 0;
#X connect 19 0 10 0;
#X connect 20 0 3 7;
#X connect 21 0 16 0;
#X connect 22 0 19 0;
#X connect 22 1 3 2;
#X connect 22 2 3 3;
#X connect 22 3 3 4;
#X connect 22 4 3 5;
#X connect 22 5 3 6;
#X connect 22 6 20 0;
#X connect 25 0 27 0;
#X connect 26 0 25 0;
#X connect 27 0 17 0;
#X connect 27 1 24 0;
