#N canvas 217 196 1158 750 10;
#X obj 66 -58 r data;
#X obj 124 170 s done;
#X obj 66 -32 unpack s f f f f f;
#X obj 717 439 tabwrite~ \$0-array;
#N canvas 0 50 450 300 (subpatch) 0;
#X array \$0-array 2048 float 2;
#X coords 0 1 2047 -1 200 140 1 0 0;
#X restore 778 173 graph;
#X obj 717 353 loadbang;
#X obj 83 436 hip~ 5;
#X msg 6 54 1;
#X obj 6 -7 t b s b;
#X obj 6 28 del 20;
#X obj 6 85 readsf~;
#X msg 54 30 open clubs/\$1;
#X obj 24 134 moses 0;
#X obj 124 111 del 500;
#X obj 84 479 *~ 0;
#X obj 84 515 dac~;
#X obj 135 436 line;
#X msg 80 64 0.2 20;
#X msg 205 208 0 20, f 5;
#X obj 124 134 t b b;
#X obj 24 113 sigmund~ pitch;
#X obj 569 -42 r max_points;
#X obj 146 335 *~;
#X obj 5 311 *~;
#X obj 19 351 *~ 1;
#X obj 143 359 *~ 0;
#X obj 83 395 +~;
#N canvas 3 73 592 416 point_distortion 0;
#X obj 268 224 phasor~;
#X obj 268 299 wrap~;
#X obj 268 323 vcf~ 0.3;
#X obj 286 171 /;
#X obj 272 113 t b f;
#X obj 272 141 f;
#X obj 359 255 sig~;
#X obj 359 228 * 2;
#X obj 268 196 *;
#X obj 268 277 *~ 1;
#X obj 272 70 inlet;
#X obj 417 69 inlet;
#X obj 214 68 inlet;
#X obj 269 369 outlet~;
#X obj 269 347 -~ 0.5;
#X connect 0 0 9 0;
#X connect 1 0 2 0;
#X connect 2 0 14 0;
#X connect 3 0 8 1;
#X connect 4 0 5 0;
#X connect 4 1 3 1;
#X connect 5 0 3 0;
#X connect 6 0 2 1;
#X connect 7 0 6 0;
#X connect 8 0 0 0;
#X connect 8 0 7 0;
#X connect 9 0 1 0;
#X connect 10 0 4 0;
#X connect 11 0 5 1;
#X connect 12 0 8 0;
#X connect 12 0 9 1;
#X connect 14 0 13 0;
#X restore 440 67 pd point_distortion;
#N canvas 903 323 422 278 mix 0;
#X obj 55 28 inlet;
#X obj 123 27 inlet;
#X obj 123 54 t f f;
#X obj 101 111 +;
#X obj 55 55 t f b f;
#X obj 137 108 f;
#X obj 55 230 outlet;
#X obj 123 228 outlet;
#X obj 123 154 /;
#X obj 55 151 /;
#X obj 123 181 sqrt;
#X obj 55 183 sqrt;
#X connect 0 0 4 0;
#X connect 1 0 2 0;
#X connect 2 0 5 1;
#X connect 2 1 3 1;
#X connect 3 0 8 1;
#X connect 3 0 9 1;
#X connect 4 0 9 0;
#X connect 4 1 5 0;
#X connect 4 2 3 0;
#X connect 5 0 8 0;
#X connect 8 0 10 0;
#X connect 9 0 11 0;
#X connect 10 0 7 0;
#X connect 11 0 6 0;
#X restore 421 247 pd mix;
#N canvas 1062 314 441 243 pos_distortion 0;
#X obj 60 55 phasor~;
#X obj 61 77 -~ 0.5;
#X obj 62 108 *~ 0;
#X obj 61 160 wrap~;
#X obj 62 135 +~ 0.97;
#X obj 60 31 mtof;
#X obj 60 5 inlet;
#X obj 130 10 inlet;
#X obj 61 190 outlet~;
#X obj 141 41 / 40;
#X connect 0 0 1 0;
#X connect 1 0 2 0;
#X connect 2 0 4 0;
#X connect 3 0 8 0;
#X connect 4 0 3 0;
#X connect 5 0 0 0;
#X connect 6 0 5 0;
#X connect 7 0 9 0;
#X connect 9 0 2 1;
#X restore 70 261 pd pos_distortion;
#X obj 716 393 metro 88;
#X connect 0 0 2 0;
#X connect 2 0 8 0;
#X connect 2 1 27 0;
#X connect 2 1 29 1;
#X connect 2 2 28 0;
#X connect 2 3 28 1;
#X connect 2 5 27 1;
#X connect 5 0 30 0;
#X connect 6 0 14 0;
#X connect 7 0 10 0;
#X connect 8 0 9 0;
#X connect 8 1 11 0;
#X connect 8 2 17 0;
#X connect 9 0 7 0;
#X connect 10 0 20 0;
#X connect 10 0 23 0;
#X connect 10 0 22 0;
#X connect 10 1 13 0;
#X connect 11 0 10 0;
#X connect 12 1 29 0;
#X connect 13 0 19 0;
#X connect 14 0 15 0;
#X connect 14 0 15 1;
#X connect 16 0 14 1;
#X connect 17 0 16 0;
#X connect 18 0 16 0;
#X connect 19 0 1 0;
#X connect 19 1 18 0;
#X connect 20 0 12 0;
#X connect 21 0 27 2;
#X connect 22 0 25 0;
#X connect 23 0 24 0;
#X connect 24 0 26 0;
#X connect 25 0 26 1;
#X connect 26 0 6 0;
#X connect 26 0 3 0;
#X connect 27 0 22 1;
#X connect 28 0 24 1;
#X connect 28 1 25 1;
#X connect 29 0 23 1;
#X connect 30 0 3 0;
